# xmcd
#
# Track frame offsets: 
#        182
#        21170
#        43905
#        66217
#        89260
#        109367
#        132160
#        153880
#        175650
#        197442
#        220917
#        244325
#        267557
#        291282
#        316570
#
# Disc length: 4461 seconds
#
# Revision: 7
# Processed by: cddbd v1.5.2PL0 Copyright (c) Steve Scherf et al.
# Submitted via: ExactAudioCopy v1.2
#
DISCID=d7116b0f
DTITLE=Joe Sample - Sample This
DYEAR=1997
DGENRE=Jazz
TTITLE0=Rainbow Seeker II
TTITLE1=I'm Coming Back Again
TTITLE2=Carmel
TTITLE3=Night Flight
TTITLE4=Chain Reaction
TTITLE5=Soul Shadows
TTITLE6=In All My Wildest Dreams
TTITLE7=Free As The Wind
TTITLE8=Snowflake
TTITLE9=It Happens Everyday
TTITLE10=Street Life
TTITLE11=Put It Where You Want It
TTITLE12=Fly With Wings Of Love
TTITLE13=Melodies Of Love
TTITLE14=Shreveport Stomps
EXTD=YEAR: 1997
EXTT0=
EXTT1=
EXTT2=
EXTT3=
EXTT4=
EXTT5=
EXTT6=
EXTT7=
EXTT8=
EXTT9=
EXTT10=
EXTT11=
EXTT12=
EXTT13=
EXTT14=
PLAYORDER=
